# xmcd
#
# Track frame offsets: 
#        150
#        16700
#        36088
#        51876
#        66266
#        81869
#        97168
#        111437
#        126234
#        142137
#        156811
#        176225
#
# Disc length: 2621 seconds
#
# Revision: 4
# Processed by: cddbd v1.5.2PL0 Copyright (c) Steve Scherf et al.
# Submitted via: ExactAudioCopy v1.3
#
DISCID=ac0a3b0c
DTITLE=Adele - 19
DYEAR=2008
DGENRE=Soul
TTITLE0=Daydreamer
TTITLE1=Best For Last
TTITLE2=Chasing Pavements
TTITLE3=Cold Shoulder
TTITLE4=Crazy For You
TTITLE5=Melt My Heart To Stone
TTITLE6=First Love
TTITLE7=Right As Rain
TTITLE8=Make You Feel My Love
TTITLE9=My Same
TTITLE10=Tired
TTITLE11=Hometown Glory
EXTD=YEAR: 2008
EXTT0=
EXTT1=
EXTT2=
EXTT3=
EXTT4=
EXTT5=
EXTT6=
EXTT7=
EXTT8=
EXTT9=
EXTT10=
EXTT11=
PLAYORDER=
